<svg xmlns="http://www.w3.org/2000/svg" viewBox="486.099 266.71 24.648 7.228"><path fill="#0b1f40" transform="matrix(0.00384522,0,0,0.00384522,486.797,273.141)" d="M1471 0H1149L1021-333H435L314 0H0L571-1466H884L1471 0ZM926-580 724-1124 526-580H926Z"></path><path fill="#0b1f40" transform="matrix(0.00384522,0,0,0.00384522,492.878,273.141)" d="M74-477 362-505C379.33335-408.3333 414.5-337.33335 467.5-292 520.5-246.66666 592-224 682-224 777.3333-224 849.1667-244.16666 897.5-284.5 945.8333-324.83335 970-372 970-426 970-460.66667 959.8333-490.16667 939.5-514.5 919.1667-538.8333 883.6667-560 833-578 798.3333-590 719.3333-611.3333 596-642 437.3333-681.3333 326-729.6667 262-787 172-867.6667 127-966 127-1082 127-1156.6666 148.16666-1226.5 190.5-1291.5 232.83335-1356.5 293.8333-1406 373.5-1440 453.1667-1474 549.3333-1491 662-1491 846-1491 984.5-1450.6666 1077.5-1370 1170.5-1289.3334 1219.3334-1181.6666 1224-1047L928-1034C915.3333-1109.3334 888.1667-1163.5 846.5-1196.5 804.8333-1229.5 742.3333-1246 659-1246 573-1246 505.66667-1228.3334 457-1193 425.66667-1170.3334 410-1140 410-1102 410-1067.3334 424.66667-1037.6666 454-1013 491.33335-981.6667 582-949 726-915 870-881 976.5-845.8333 1045.5-809.5 1114.5-773.1667 1168.5-723.5 1207.5-660.5 1246.5-597.5 1266-519.6667 1266-427 1266-343 1242.6666-264.33335 1196-191 1149.3334-117.666667 1083.3334-63.166669 998-27.5 912.6667 8.166668 806.3333 26 679 26 493.66667 26 351.33335-16.833329 252-102.5 152.66666-188.16667 93.333339-313 74-477Z"></path><path fill="#0b1f40" transform="matrix(0.00384522,0,0,0.00384522,498.524,273.141)" d="M145 0V-1466H588L854-466 1117-1466H1561V0H1286V-1154L995 0H710L420-1154V0H145Z"></path><path fill="#0b1f40" transform="matrix(0.00384522,0,0,0.00384522,505.478,273.141)" d="M157 0V-1454H453V-247H1189V0H157Z"></path></svg>
