<svg xmlns="http://www.w3.org/2000/svg" viewBox="490.845 346.739 15.81 6.541"><path fill="none" stroke="#ed1b2d" stroke-width="1.5" d="M492 352.125C492.307 351.491 492.696 350.912 493.166 350.387C493.636 349.863 494.17 349.413 494.767 349.039C495.364 348.665 496.001 348.381 496.678 348.186C497.355 347.991 498.046 347.894 498.75 347.894C499.454 347.894 500.145 347.991 500.822 348.186C501.499 348.381 502.136 348.665 502.733 349.039C503.33 349.413 503.864 349.863 504.334 350.387C504.804 350.912 505.193 351.491 505.5 352.125"></path><path fill="none" stroke="#f68b1f" stroke-width="1.5" d="M494.25 352.125C494.366 351.932 494.494 351.747 494.634 351.57C494.774 351.393 494.925 351.226 495.087 351.068C495.248 350.911 495.419 350.765 495.6 350.629C495.78 350.494 495.969 350.371 496.165 350.26C496.361 350.149 496.564 350.051 496.773 349.966C496.982 349.881 497.195 349.81 497.413 349.752C497.632 349.695 497.852 349.652 498.076 349.623C498.3 349.594 498.524 349.579 498.75 349.579C498.976 349.579 499.2 349.594 499.424 349.623C499.648 349.652 499.868 349.695 500.087 349.752C500.305 349.81 500.518 349.881 500.727 349.966C500.936 350.051 501.139 350.149 501.335 350.26C501.531 350.371 501.72 350.494 501.9 350.629C502.081 350.765 502.252 350.911 502.413 351.068C502.575 351.226 502.726 351.393 502.866 351.57C503.006 351.747 503.134 351.932 503.25 352.125"></path><path fill="none" stroke="#00a859" stroke-width="1.5" d="M496.5 352.125C496.641 351.965 496.797 351.822 496.968 351.696C497.139 351.57 497.322 351.463 497.516 351.375C497.71 351.287 497.911 351.221 498.119 351.176C498.327 351.132 498.537 351.109 498.75 351.109C498.963 351.109 499.173 351.132 499.381 351.176C499.589 351.221 499.79 351.287 499.984 351.375C500.178 351.463 500.361 351.57 500.532 351.696C500.703 351.822 500.859 351.965 501 352.125"></path></svg>
