<svg xmlns="http://www.w3.org/2000/svg" viewBox="388.71 183.21 19.08 11.58"><path fill="#000000" d="M399.75 189C399.75 189.345 399.716 189.686 399.649 190.024C399.582 190.362 399.482 190.691 399.35 191.009C399.218 191.328 399.057 191.63 398.865 191.917C398.674 192.203 398.456 192.469 398.212 192.712C397.969 192.956 397.703 193.174 397.417 193.365C397.13 193.557 396.828 193.718 396.509 193.85C396.191 193.982 395.862 194.082 395.524 194.149C395.186 194.216 394.845 194.25 394.5 194.25C394.155 194.25 393.814 194.216 393.476 194.149C393.138 194.082 392.809 193.982 392.491 193.85C392.172 193.718 391.87 193.557 391.583 193.365C391.297 193.174 391.031 192.956 390.788 192.712C390.544 192.469 390.326 192.203 390.135 191.917C389.943 191.63 389.782 191.328 389.65 191.009C389.518 190.691 389.418 190.362 389.351 190.024C389.284 189.686 389.25 189.345 389.25 189C389.25 188.655 389.284 188.314 389.351 187.976C389.418 187.638 389.518 187.309 389.65 186.991C389.782 186.672 389.943 186.37 390.135 186.083C390.326 185.797 390.544 185.531 390.788 185.288C391.031 185.044 391.297 184.826 391.583 184.635C391.87 184.443 392.172 184.282 392.491 184.15C392.809 184.018 393.138 183.918 393.476 183.851C393.814 183.784 394.155 183.75 394.5 183.75C394.845 183.75 395.186 183.784 395.524 183.851C395.862 183.918 396.191 184.018 396.509 184.15C396.828 184.282 397.13 184.443 397.417 184.635C397.703 184.826 397.969 185.044 398.212 185.288C398.456 185.531 398.674 185.797 398.865 186.083C399.057 186.37 399.218 186.672 399.35 186.991C399.482 187.309 399.582 187.638 399.649 187.976C399.716 188.314 399.75 188.655 399.75 189"></path><path fill="#e60012" d="M407.25 189C407.25 189.345 407.216 189.686 407.149 190.024C407.082 190.362 406.982 190.691 406.85 191.009C406.718 191.328 406.557 191.63 406.365 191.917C406.174 192.203 405.956 192.469 405.712 192.712C405.469 192.956 405.203 193.174 404.917 193.365C404.63 193.557 404.328 193.718 404.009 193.85C403.691 193.982 403.362 194.082 403.024 194.149C402.686 194.216 402.345 194.25 402 194.25C401.655 194.25 401.314 194.216 400.976 194.149C400.638 194.082 400.309 193.982 399.991 193.85C399.672 193.718 399.37 193.557 399.083 193.365C398.797 193.174 398.531 192.956 398.288 192.712C398.044 192.469 397.826 192.203 397.635 191.917C397.443 191.63 397.282 191.328 397.15 191.009C397.018 190.691 396.918 190.362 396.851 190.024C396.784 189.686 396.75 189.345 396.75 189C396.75 188.655 396.784 188.314 396.851 187.976C396.918 187.638 397.018 187.309 397.15 186.991C397.282 186.672 397.443 186.37 397.635 186.083C397.826 185.797 398.044 185.531 398.288 185.288C398.531 185.044 398.797 184.826 399.083 184.635C399.37 184.443 399.672 184.282 399.991 184.15C400.309 184.018 400.638 183.918 400.976 183.851C401.314 183.784 401.655 183.75 402 183.75C402.345 183.75 402.686 183.784 403.024 183.851C403.362 183.918 403.691 184.018 404.009 184.15C404.328 184.282 404.63 184.443 404.917 184.635C405.203 184.826 405.469 185.044 405.712 185.288C405.956 185.531 406.174 185.797 406.365 186.083C406.557 186.37 406.718 186.672 406.85 186.991C406.982 187.309 407.082 187.638 407.149 187.976C407.216 188.314 407.25 188.655 407.25 189"></path><path fill="#ffffff" transform="matrix(0.00256348,0,0,0.00256348,392.121,191.625)" d="M634-1062V-838H442V-410C442-323.3333 443.83335-272.83335 447.5-258.5 451.16667-244.16667 459.5-232.33333 472.5-223 485.5-213.66667 501.33335-209 520-209 546-209 583.6667-218 633-236L657-18C591.6667 10 517.6667 24 435 24 384.33335 24 338.66667 15.5 298-1.5 257.33335-18.5 227.5-40.5 208.5-67.5 189.5-94.5 176.33333-131 169-177 163-209.66667 160-275.66667 160-375V-838H31V-1062H160V-1273L442-1437V-1062H634Z"></path><path fill="#ffffff" transform="matrix(0.00256348,0,0,0.00256348,393.869,191.625)" d="M48-303 330-346C342-291.33335 366.33335-249.83333 403-221.5 439.66667-193.16667 491-179 557-179 629.6667-179 684.3333-192.33333 721-219 745.6667-237.66667 758-262.66667 758-294 758-315.33335 751.3333-333 738-347 724-360.33335 692.6667-372.66667 644-384 417.3333-434 273.66667-479.66667 213-521 129-578.3333 87-658 87-760 87-852 123.33333-929.3333 196-992 268.6667-1054.6666 381.3333-1086 534-1086 679.3334-1086 787.3333-1062.3334 858-1015 928.6667-967.6667 977.3333-897.6667 1004-805L739-756C727.6667-797.3333 706.1667-829 674.5-851 642.8333-873 597.6667-884 539-884 465-884 412-873.6667 380-853 358.66667-838.3333 348-819.3333 348-796 348-776 357.33335-759 376-745 401.33335-726.3333 488.8333-700 638.5-666 788.1667-632 892.6667-590.3333 952-541 1010.6667-491 1040-421.33335 1040-332 1040-234.66666 999.3333-151 918-81 836.6667-11 716.3334 24 557 24 412.3333 24 297.83335-5.333332 213.5-64 129.16666-122.66667 74-202.33333 48-303Z"></path><path fill="#ffffff" transform="matrix(0.00256348,0,0,0.00256348,396.789,191.625)" d="M126-1062H385V-917C477.6667-1029.6666 588-1086 716-1086 784-1086 843-1072 893-1044 943-1016 984-973.6667 1016-917 1062.6666-973.6667 1113-1016 1167-1044 1221-1072 1278.6666-1086 1340-1086 1418-1086 1484-1070.1666 1538-1038.5 1592-1006.8333 1632.3334-960.3333 1659-899 1678.3334-853.6667 1688-780.3333 1688-679V0H1407V-607C1407-712.3333 1397.3334-780.3333 1378-811 1352-851 1312-871 1258-871 1218.6666-871 1181.6666-859 1147-835 1112.3334-811 1087.3334-775.8333 1072-729.5 1056.6666-683.1667 1049-610 1049-510V0H768V-582C768-685.3333 763-752 753-782 743-812 727.5-834.3333 706.5-849 685.5-863.6667 657-871 621-871 577.6667-871 538.6667-859.3333 504-836 469.33335-812.6667 444.5-779 429.5-735 414.5-691 407-618 407-516V0H126V-1062Z"></path><path fill="#ffffff" transform="matrix(0.00256348,0,0,0.00256348,401.457,191.625)" d="M1073-748 796-698C786.6667-753.3333 765.5-795 732.5-823 699.5-851 656.6667-865 604-865 534-865 478.16667-840.8333 436.5-792.5 394.83335-744.1667 374-663.3333 374-550 374-424 395.16667-335 437.5-283 479.83335-231 536.6667-205 608-205 661.3333-205 705-220.16667 739-250.5 773-280.83335 797-333 811-407L1087-360C1058.3334-233.33333 1003.3333-137.66667 922-73 840.6667-8.333328 731.6667 24 595 24 439.66667 24 315.83335-25 223.5-123 131.16666-221 85-356.66667 85-530 85-705.3334 131.33333-841.8333 224-939.5 316.6667-1037.1666 442-1086 600-1086 729.3334-1086 832.1667-1058.1666 908.5-1002.5 984.8333-946.8333 1039.6666-862 1073-748Z"></path></svg>
